<svg width="40" height="40" viewBox="0 0 40 40" fill="none" xmlns="http://www.w3.org/2000/svg">
<path d="M14.1984 9.59998H28.7984C31.9984 9.59998 34.5984 12.2 34.5984 15.4V25.6M11.1984 18.3V25.6M24.3984 18.3V25.6M8.29844 30H27.2984C28.8984 30 30.1984 28.7 30.1984 27.1V16.9C30.1984 15.3 28.8984 14 27.2984 14H8.29844C6.69844 14 5.39844 15.3 5.39844 16.9V27.1C5.39844 28.7 6.69844 30 8.29844 30ZM19.9984 22C19.9984 23.2 18.9984 24.2 17.7984 24.2C16.5984 24.2 15.5984 23.2 15.5984 22C15.5984 20.8 16.5984 19.8 17.7984 19.8C18.9984 19.8 19.9984 20.8 19.9984 22Z" stroke="#00183C" stroke-width="2.5"/>
</svg>
