<svg width="40" height="40" viewBox="0 0 40 40" fill="none" xmlns="http://www.w3.org/2000/svg">
<path d="M33.3992 26.6H22.9992C22.2812 26.6 21.6992 27.182 21.6992 27.9V34.5C21.6992 35.2179 22.2812 35.8 22.9992 35.8H33.3992C34.1172 35.8 34.6992 35.2179 34.6992 34.5V27.9C34.6992 27.182 34.1172 26.6 33.3992 26.6Z" stroke="#00183C" stroke-width="2.5"/>
<path d="M31.9008 26.6V23.2C31.9008 21.1 30.2008 19.4 28.1008 19.4C26.0008 19.4 24.3008 21.1 24.3008 23.2V26.6" stroke="#00183C" stroke-width="2.5"/>
<path d="M21.8992 30.6H6.49922C5.79922 30.6 5.19922 30 5.19922 29.3V25.4C5.19922 23.3 6.89922 21.5 9.09922 21.5H24.4992" stroke="#00183C" stroke-width="2.5"/>
<path d="M22.0008 12.6C22.0008 15.4 19.7008 17.7 16.9008 17.7C14.1008 17.7 11.8008 15.4 11.8008 12.6C11.8008 9.80002 14.1008 7.40002 16.9008 7.40002C19.7008 7.40002 22.0008 9.70002 22.0008 12.6Z" stroke="#00183C" stroke-width="2.5"/>
</svg>
