<svg width="103" height="34" xmlns="http://www.w3.org/2000/svg"><g fill="none" fill-rule="evenodd"><path d="M37.773 13.047c.617 0 1.1-.17 1.447-.51.348-.34.522-.819.522-1.436v-.403c0-.474-.093-.864-.278-1.168-.186-.305-.417-.516-.694-.635-.522-.213-1.12-.348-1.791-.403-.649-.055-.973-.269-.973-.64v-.226c0-.356.058-.595.172-.717.115-.123.334-.184.659-.184h.462c.316 0 .534.055.652.166.119.11.178.32.178.629v.07c0 .167.083.25.25.25h1.008c.166 0 .249-.083.249-.25v-.225c0-.616-.174-1.095-.522-1.435-.348-.34-.834-.51-1.46-.51H36.47c-.617 0-1.1.17-1.447.51-.348.34-.522.819-.522 1.435v.415c0 .49.093.892.279 1.204.186.313.417.522.694.629.276.107.575.194.895.26.32.068.619.114.895.137.277.024.509.097.694.22a.595.595 0 0 1 .279.527v.143c0 .324-.061.545-.184.664-.122.119-.338.178-.646.178h-.558c-.316 0-.533-.055-.652-.166-.119-.11-.178-.316-.178-.617v-.095c0-.166-.083-.249-.249-.249h-1.008c-.166 0-.25.083-.25.25v.236c0 .617.175 1.096.523 1.436.348.34.83.51 1.447.51h1.292zm7.647 0c.158 0 .237-.084.237-.25v-.806c0-.166-.08-.25-.237-.25h-2.48c-.094 0-.142-.043-.142-.13V9.963c0-.087.048-.13.143-.13h2.028c.166 0 .249-.084.249-.25v-.806c0-.166-.083-.25-.25-.25h-2.027c-.095 0-.143-.043-.143-.13V6.855c0-.087.048-.13.143-.13h2.479c.158 0 .237-.083.237-.25V5.67c0-.166-.08-.249-.237-.249H41.54c-.166 0-.249.083-.249.25v7.127c0 .166.083.25.25.25h3.878zm4.882 0c.617 0 1.097-.169 1.441-.505.344-.336.516-.812.516-1.429v-.557c0-.174-.087-.261-.26-.261h-.997c-.166 0-.25.087-.25.26v.487c0 .253-.053.433-.16.54-.106.106-.286.16-.539.16h-.806c-.246 0-.422-.054-.528-.16-.107-.107-.16-.287-.16-.54V7.425c0-.253.053-.433.16-.54.106-.107.282-.16.528-.16h.806c.253 0 .433.053.54.16.106.107.16.287.16.54v.486c0 .174.083.26.249.26h.996c.174 0 .261-.086.261-.26v-.558c0-.616-.172-1.093-.516-1.429-.344-.336-.824-.504-1.44-.504h-1.294c-.624 0-1.107.166-1.447.498-.34.332-.51.81-.51 1.435v3.76c0 .625.17 1.103.51 1.435.34.332.823.499 1.447.499h1.293zm6.65 0c.617 0 1.097-.169 1.44-.505.345-.336.517-.812.517-1.429V5.657c0-.158-.087-.237-.261-.237h-.996c-.166 0-.25.083-.25.25v5.372c0 .253-.053.433-.16.54-.106.106-.286.16-.54.16h-.818c-.245 0-.42-.054-.527-.16-.107-.107-.16-.287-.16-.54V5.67c0-.166-.084-.249-.25-.249H53.94c-.166 0-.249.083-.249.25v5.443c0 .625.17 1.103.51 1.435.34.332.823.499 1.447.499h1.305zm4.894 0c.166 0 .25-.084.25-.25v-2.431c0-.087.047-.13.142-.13h.794l1.186 2.561c.04.103.091.17.155.202a.735.735 0 0 0 .308.048h.96c.206 0 .273-.095.202-.285l-1.269-2.645v-.047c.704-.293 1.056-.886 1.056-1.78v-.925c0-.616-.174-1.095-.522-1.435-.348-.34-.83-.51-1.447-.51h-2.823c-.166 0-.249.083-.249.25v7.127c0 .166.083.25.25.25h1.007zm1.542-4.021h-1.162c-.087 0-.13-.044-.13-.13v-2.04c0-.088.043-.131.13-.131h1.162c.253 0 .439.055.558.166.118.11.177.289.177.534v.925c0 .237-.059.409-.177.516-.119.106-.305.16-.558.16zm8.014 4.02c.158 0 .237-.083.237-.249v-.806c0-.166-.079-.25-.237-.25h-2.479c-.095 0-.142-.043-.142-.13V9.963c0-.087.047-.13.142-.13h2.028c.166 0 .25-.084.25-.25v-.806c0-.166-.084-.25-.25-.25h-2.028c-.095 0-.142-.043-.142-.13V6.855c0-.087.047-.13.142-.13h2.479c.158 0 .237-.083.237-.25V5.67c0-.166-.079-.249-.237-.249h-3.879c-.166 0-.249.083-.249.25v7.127c0 .166.083.25.25.25h3.878zm4.93 0c.617 0 1.097-.168 1.44-.504.345-.336.517-.812.517-1.429v-3.76c0-.616-.172-1.093-.516-1.429-.344-.336-.824-.504-1.441-.504h-2.93c-.166 0-.249.083-.249.25v7.127c0 .166.083.25.25.25h2.929zm-.25-1.304H74.79c-.087 0-.13-.044-.13-.13V6.854c0-.087.043-.13.13-.13h1.293c.253 0 .433.053.54.16.106.107.16.287.16.54v3.617c0 .253-.054.433-.16.54-.107.106-.287.16-.54.16zm9.849 1.305c.617 0 1.095-.167 1.435-.499.34-.332.51-.806.51-1.423v-.712c0-.387-.095-.685-.285-.895a1.234 1.234 0 0 0-.759-.385c.625-.198.937-.633.937-1.305v-.486c0-.617-.17-1.092-.51-1.424-.34-.332-.822-.498-1.447-.498h-2.846c-.166 0-.25.083-.25.25v7.127c0 .166.084.25.25.25h2.965zm-.368-4.531h-1.21c-.086 0-.13-.044-.13-.13V6.807c0-.087.044-.13.13-.13h1.222c.253 0 .437.053.552.16.114.106.172.282.172.527v.463c0 .245-.06.421-.178.528-.119.106-.305.16-.558.16zm.119 3.273h-1.329c-.086 0-.13-.043-.13-.13V9.868c0-.087.044-.13.13-.13h1.305c.269 0 .463.05.581.154.119.102.178.276.178.521v.688c0 .246-.057.421-.172.528-.114.107-.302.16-.563.16zm6.614 1.258c.166 0 .25-.084.25-.25V10.26l2.17-4.578c.04-.079.041-.142.006-.19-.036-.047-.093-.07-.172-.07h-1.258c-.134 0-.229.082-.284.248l-1.163 2.882h-.083L90.576 5.67c-.063-.166-.158-.249-.284-.249h-1.258c-.07 0-.124.026-.16.077-.035.052-.037.113-.006.184l2.17 4.578v2.538c0 .166.084.25.25.25h1.008zM39.684 28.86c.977 0 1.74-.282 2.292-.846.55-.564.826-1.357.826-2.38v-.67c0-.786-.147-1.432-.441-1.937-.294-.505-.66-.856-1.099-1.053-.826-.354-1.772-.577-2.836-.669-1.027-.092-1.54-.446-1.54-1.062v-.374c0-.59.09-.987.272-1.19.181-.204.529-.305 1.042-.305h.733c.5 0 .845.091 1.033.275.188.184.282.531.282 1.043v.118c0 .275.131.413.394.413h1.597c.263 0 .394-.138.394-.413v-.374c0-1.023-.275-1.817-.826-2.38-.551-.565-1.321-.847-2.31-.847h-1.879c-.977 0-1.74.282-2.292.846-.55.564-.826 1.358-.826 2.381v.689c0 .813.147 1.479.441 1.997.295.518.661.865 1.1 1.042.438.178.91.322 1.417.433.508.112.98.187 1.419.227.438.039.804.16 1.098.364.295.203.442.495.442.875v.236c0 .538-.097.905-.291 1.102-.194.197-.536.295-1.024.295h-.883c-.5 0-.845-.092-1.033-.275-.188-.184-.282-.525-.282-1.023v-.158c0-.275-.131-.413-.394-.413h-1.597c-.263 0-.394.138-.394.413v.394c0 1.023.275 1.816.826 2.38.551.564 1.315.846 2.292.846h2.047zm11.846 0c.244 0 .365-.137.365-.413V27.11c0-.275-.121-.413-.365-.413h-3.817c-.146 0-.22-.072-.22-.216v-2.735c0-.144.074-.217.22-.217h3.123c.256 0 .384-.137.384-.413v-1.338c0-.275-.128-.413-.384-.413h-3.123c-.146 0-.22-.072-.22-.216V18.59c0-.144.074-.216.22-.216h3.817c.244 0 .365-.138.365-.414v-1.338c0-.275-.121-.413-.365-.413h-5.972c-.256 0-.384.138-.384.413v11.825c0 .276.128.413.384.413h5.972zm7.129 0c.983 0 1.749-.278 2.297-.836.549-.557.823-1.347.823-2.37v-.925c0-.289-.139-.433-.416-.433h-1.589c-.264 0-.397.144-.397.433v.806c0 .42-.085.718-.255.896-.17.177-.457.265-.86.265h-1.287c-.39 0-.67-.088-.841-.265-.17-.178-.255-.476-.255-.896v-6c0-.42.085-.719.255-.896.17-.177.45-.265.841-.265h1.286c.404 0 .69.088.86.265.171.177.256.476.256.895v.807c0 .289.133.433.397.433h1.589c.277 0 .416-.144.416-.433v-.925c0-1.023-.274-1.813-.823-2.37-.548-.558-1.314-.837-2.297-.837h-2.062c-.996 0-1.765.276-2.307.827-.542.55-.813 1.344-.813 2.38v6.237c0 1.037.27 1.83.813 2.381.542.551 1.311.826 2.307.826h2.062zm9.446 0c.263 0 .395-.137.395-.413V18.59c0-.144.075-.216.226-.216h2.146c.264 0 .395-.138.395-.414v-1.338c0-.275-.131-.413-.395-.413h-7.116c-.264 0-.396.138-.396.413v1.338c0 .276.132.414.396.414h2.146c.138 0 .207.072.207.216v9.857c0 .276.138.413.414.413h1.582zm6.328 0c.262 0 .393-.137.393-.413V16.622c0-.275-.131-.413-.393-.413h-1.587c-.262 0-.393.138-.393.413v11.825c0 .276.131.413.393.413h1.587zm7.69 0c.946 0 1.679-.278 2.2-.836.521-.557.782-1.347.782-2.37v-3.286c0-.302-.14-.453-.418-.453h-3.181c-.255 0-.382.138-.382.413v1.338c0 .276.127.413.382.413h1.09c.134 0 .2.073.2.217v1.24c0 .42-.079.717-.236.895-.158.177-.43.265-.818.265H80.56c-.375 0-.645-.088-.808-.265-.164-.178-.246-.476-.246-.896v-6c0-.42.082-.719.246-.896.163-.177.433-.265.808-.265h1.182c.388 0 .66.088.818.265.157.177.236.476.236.895v.473c0 .288.127.432.382.432h1.545c.254 0 .382-.144.382-.432v-.59c0-1.024-.26-1.814-.782-2.372-.521-.557-1.254-.836-2.2-.836h-1.926c-.957 0-1.697.276-2.218.827-.52.55-.781 1.344-.781 2.38v6.237c0 1.037.26 1.83.781 2.381.521.551 1.26.826 2.218.826h1.927zm10.557 0c.99 0 1.753-.275 2.291-.826.539-.55.808-1.344.808-2.38v-6.238c0-1.036-.27-1.83-.808-2.38-.538-.551-1.302-.827-2.291-.827h-2.104c-.99 0-1.753.276-2.292.827-.538.55-.807 1.344-.807 2.38v6.237c0 1.037.269 1.83.807 2.381.539.551 1.303.826 2.292.826h2.104zm-.39-2.372h-1.343c-.404 0-.688-.088-.852-.265-.164-.176-.246-.474-.246-.893v-5.986c0-.419.082-.716.246-.893.164-.177.448-.265.852-.265h1.343c.404 0 .691.088.861.265.17.177.256.474.256.893v5.986c0 .42-.085.717-.256.893-.17.177-.457.265-.86.265z" fill="#041C2C" fill-rule="nonzero"/><path fill="#00AF73" d="M28.86 5.14H29.86V28.861H28.86z"/><path d="M94.395 0a8 8 0 0 1 8 8v18a8 8 0 0 1-8 8H8a8 8 0 0 1-8-8V8a8 8 0 0 1 8-8h86.395zm0 2H8a6 6 0 0 0-5.996 5.775L2 8v18a6 6 0 0 0 5.775 5.996L8 32h86.395a6 6 0 0 0 5.996-5.775l.004-.225V8a6 6 0 0 0-5.775-5.996L94.395 2z" fill="#00AF73" fill-rule="nonzero"/><path d="M17.567 11.96c1.961 0 3.431.52 4.409 1.563.972 1.036 1.376 2.523 1.212 4.467l-.445 5.082-.036.338c-.22 1.779-.87 3.154-1.955 4.129-1.153 1.042-2.716 1.563-4.678 1.563H6.62c-.58 0-.884-.632-.55-1.13l1.305-1.938a2.297 2.297 0 0 1 1.891-1.036h6.429c.772 0 1.34-.17 1.703-.504.363-.333.58-.895.65-1.692l.398-4.554c.065-.79-.052-1.359-.357-1.693-.31-.333-.849-.503-1.616-.503h-1.194a.738.738 0 0 1-.75-.82l.217-2.494c.041-.45.27-.708.691-.767v-.011zm5.86-6.81c.58 0 .885.633.551 1.13l-1.3 1.933a2.297 2.297 0 0 1-1.89 1.036h-6.289c-.773 0-1.34.17-1.703.503-.363.334-.58.896-.65 1.692L11.748 16c-.065.797.052 1.364.357 1.698.31.334.849.504 1.616.504h1.182c.457 0 .79.369.75.82l-.217 2.493c-.041.451-.27.709-.69.767v.012h-2.132c-1.961 0-3.43-.521-4.409-1.563-.971-1.036-1.375-2.523-1.211-4.467l.444-5.082.037-.338c.219-1.78.869-3.154 1.954-4.13 1.153-1.041 2.717-1.563 4.678-1.563z" fill="#00AF73" fill-rule="nonzero"/></g></svg>