<svg width="24" height="24" viewBox="0 0 24 24" fill="none" xmlns="http://www.w3.org/2000/svg">
  <!-- Trustpilot text -->
  <text x="0" y="16" font-family="Arial, sans-serif" font-size="8" font-weight="bold" fill="white">Trustpilot</text>
  
  <!-- 5 stars in a row -->
  <g transform="translate(0, 18)">
    <!-- Star 1 -->
    <path d="M1 2L1.5 1L2 2L3 2L2.2 2.8L2.5 4L1.5 3.4L0.5 4L0.8 2.8L0 2L1 2Z" fill="white"/>
    <!-- Star 2 -->
    <path d="M4 2L4.5 1L5 2L6 2L5.2 2.8L5.5 4L4.5 3.4L3.5 4L3.8 2.8L3 2L4 2Z" fill="white"/>
    <!-- Star 3 -->
    <path d="M7 2L7.5 1L8 2L9 2L8.2 2.8L8.5 4L7.5 3.4L6.5 4L6.8 2.8L6 2L7 2Z" fill="white"/>
    <!-- Star 4 -->
    <path d="M10 2L10.5 1L11 2L12 2L11.2 2.8L11.5 4L10.5 3.4L9.5 4L9.8 2.8L9 2L10 2Z" fill="white"/>
    <!-- Star 5 -->
    <path d="M13 2L13.5 1L14 2L15 2L14.2 2.8L14.5 4L13.5 3.4L12.5 4L12.8 2.8L12 2L13 2Z" fill="white"/>
  </g>
</svg>