<svg width="139" height="32" viewBox="0 0 139 32" fill="none" xmlns="http://www.w3.org/2000/svg">
<g clip-path="url(#clip0_40009242_40143)">
<path fill-rule="evenodd" clip-rule="evenodd" d="M82.9079 0.227295H77.124V6.0112H82.9079V0.227295ZM61.391 31.6838C59.1266 31.6838 57.1709 31.1839 55.5238 30.1843V30.1824C53.8766 29.1828 52.6119 27.7874 51.7297 25.9926C50.8758 24.1978 50.4498 22.1531 50.4498 19.8604C50.4498 17.5676 50.891 15.5381 51.7732 13.7735C52.6555 11.9806 53.9069 10.5834 55.5238 9.58377C57.1709 8.58413 59.0963 8.08431 61.302 8.08431C62.7427 8.08431 64.0813 8.39291 65.3157 9.01011C66.5804 9.59891 67.5649 10.377 68.271 11.3483V8.43645H73.8372V31.3316H68.271V28.3762C67.7428 29.3172 66.8454 30.1105 65.5807 30.758C64.3179 31.3752 62.9207 31.6838 61.391 31.6838ZM65.4255 26.2369C64.4808 26.8238 63.3959 27.1172 62.1729 27.1172C60.9214 27.1172 59.8214 26.8238 58.8767 26.2369C57.9301 25.6216 57.1936 24.7696 56.6654 23.6791C56.1637 22.5602 55.9138 21.2879 55.9138 19.8623C55.9138 18.4366 56.1656 17.1776 56.6654 16.0871C57.1936 14.9966 57.932 14.1579 58.8767 13.571C59.8233 12.9557 60.9498 12.649 62.1729 12.649C63.3959 12.649 64.4808 12.9557 65.4255 13.571C66.3721 14.1579 67.1086 14.9966 67.6368 16.0871C68.165 17.1776 68.4301 18.4082 68.4301 19.8623C68.4301 21.3163 68.165 22.5886 67.6368 23.6791C67.1086 24.7696 66.3702 25.6216 65.4255 26.2369ZM122.36 8.52354H116.801V31.4168H122.36V21.3598C122.36 19.6256 122.579 18.1394 123.02 16.905C123.461 15.6706 124.109 14.7296 124.961 14.0821C125.813 13.4347 126.843 13.1109 128.049 13.1109C129.372 13.1109 130.432 13.5388 131.226 14.3907C132.049 15.2446 132.46 16.3465 132.46 17.7002V31.4187H137.975V16.4203C137.975 14.7751 137.623 13.3324 136.917 12.098C136.241 10.8333 135.27 9.86208 134.005 9.18618C132.742 8.51029 131.241 8.1714 129.683 8.1714C128.125 8.1714 126.697 8.52354 125.404 9.22973C124.139 9.90562 123.124 10.8466 122.36 12.0526V8.52354ZM95.5681 31.7728C93.6275 31.7728 91.9065 31.4339 90.4071 30.758C88.9076 30.0518 87.7168 29.0673 86.8345 27.8026C85.9825 26.5379 85.5262 25.0971 85.4676 23.4803H90.8936C90.9523 24.3928 91.4238 25.2145 92.306 25.951C93.1883 26.6856 94.2769 27.0548 95.57 27.0548C96.687 27.0548 97.5844 26.8351 98.2603 26.3921C98.9665 25.951 99.3186 25.3773 99.3186 24.6711C99.3186 24.0823 99.0971 23.6128 98.6579 23.2588C98.2452 22.8763 97.6431 22.6113 96.8498 22.4655L93.2772 21.7158C91.2477 21.2746 89.6157 20.5249 88.3813 19.4666C87.1469 18.378 86.5278 16.8047 86.5278 14.7467C86.5278 13.5407 86.8799 12.4388 87.5861 11.4373C88.2923 10.4376 89.2919 9.64247 90.5869 9.05556C91.8819 8.46676 93.3814 8.1733 95.0872 8.1733C96.793 8.1733 98.2773 8.46676 99.631 9.05556C100.983 9.64436 102.087 10.4812 102.939 11.5698C103.821 12.6584 104.351 13.9515 104.527 15.451H99.1009C98.9835 14.5687 98.5273 13.8777 97.734 13.3779C96.9691 12.878 96.0868 12.6281 95.0872 12.6281C94.1746 12.6281 93.4401 12.8194 92.8816 13.2018C92.323 13.5842 92.0428 14.0992 92.0428 14.7467C92.0428 15.2768 92.2492 15.7179 92.66 16.0701C93.1012 16.4222 93.7184 16.6721 94.5135 16.8198L98.0861 17.5695C100.292 18.0107 101.982 18.7453 103.158 19.7752C104.364 20.8051 104.966 22.3936 104.966 24.5386C104.966 25.862 104.569 27.0832 103.775 28.2002C102.982 29.2888 101.863 30.1559 100.422 30.8034C99.01 31.4509 97.3932 31.7747 95.57 31.7747L95.5681 31.7728ZM46.1276 13.3324H49.2193V8.1733H46.7902C45.3797 8.1733 43.9976 8.61443 42.644 9.49669C41.3206 10.3505 40.408 11.424 39.9082 12.7171V8.52545H34.3496V31.4187H39.9082V22.9937C39.9082 20.8165 40.1884 19.0084 40.7469 17.5676C41.3338 16.0966 42.0836 15.0231 42.9961 14.3472C43.9371 13.6713 44.9802 13.3324 46.1276 13.3324ZM77.2659 8.44025H82.8245V31.3354H77.2659V8.44025ZM113.323 8.52165H107.764V31.4168H113.323V8.52165ZM107.664 0.227295H113.448V6.0112H107.664V0.227295Z" fill="#3096FF"/>
<path d="M23.0278 31.494H17.5798V14.0874H0.117188V8.6394H19.776C21.5687 8.6394 23.0278 10.0985 23.0278 11.8911V31.494Z" fill="#3096FF"/>
<path fill-rule="evenodd" clip-rule="evenodd" d="M18.6094 16.8428L4.23296 31.2192C4.08995 31.3622 3.89598 31.4426 3.69374 31.4426L1.02953 31.4426C0.548209 31.4426 0.158019 31.0524 0.158019 30.5711L0.158019 27.9069C0.158019 27.7046 0.238362 27.5107 0.381372 27.3677L14.7578 12.9912L18.6094 12.9912L18.6094 16.8428Z" fill="#3096FF"/>
</g>
<defs>
<clipPath id="clip0_40009242_40143">
<rect width="138.8" height="31.5455" fill="white" transform="translate(0 0.227295)"/>
</clipPath>
</defs>
</svg>
